<svg width="583" height="259" viewBox="0 0 583 259" fill="none" xmlns="http://www.w3.org/2000/svg">
<g clip-path="url(#clip0_0_1)">
<path d="M84.1485 215.23L124.657 213.968L126.988 206.237C129.447 198.042 126.583 180.514 120.937 168.258C114.423 154.318 113.498 154.329 96.0675 167.789C80.87 179.836 80.5616 179.84 73.4361 176.691C65.6582 172.934 57.8209 173.491 53.4618 178.166C51.8635 179.88 48.397 181.308 45.7846 181.494C41.6302 181.698 41.1201 183.553 42.3354 199.252L43.4943 216.647L84.1485 215.23Z" fill="#0040FF"/>
<path d="M54.3011 173.996C59.0962 168.854 69.2553 168.423 74.1479 172.985C76.9204 175.57 76.7959 173.415 74.0859 163.896C66.1368 135.8 66.1275 50.144 74.1192 41.5739C75.4269 40.1715 76.1743 37.0813 75.8867 34.7739C75.0951 29.0834 54.3323 22.2484 49.4662 26.1589C47.1058 28.0362 46.7552 48.6842 48.0407 97.659C48.8313 135.394 49.8445 168.966 50.0401 172.353C50.3779 178.203 50.3779 178.203 54.3011 173.996Z" fill="#0040FF"/>
</g>
<g clip-path="url(#clip1_0_1)">
<path d="M331.648 201.991L300.607 199.538L299.156 193.524C297.627 187.15 300.592 173.816 305.461 164.625C311.071 154.175 311.781 154.217 324.573 165.178C335.712 174.973 335.949 174.987 341.556 172.834C347.691 170.239 353.683 170.953 356.825 174.698C357.977 176.071 360.576 177.293 362.573 177.531C365.753 177.841 366.063 179.282 364.444 191.275L362.794 204.57L331.648 201.991Z" fill="#0040FF"/>
<path d="M356.363 171.47C352.907 167.351 345.127 166.647 341.172 169.966C338.931 171.847 339.121 170.199 341.617 163C348.947 141.748 352.7 76.0691 346.939 69.2045C345.997 68.0812 345.558 65.6843 345.88 63.9256C346.736 59.5913 362.973 55.1123 366.538 58.2893C368.268 59.8154 367.634 75.6606 364.506 113.166C362.249 142.071 360.004 167.776 359.706 170.366C359.191 174.84 359.191 174.84 356.363 171.47Z" fill="#0040FF"/>
</g>
<path d="M119.554 136.574V100.451H131.902V148H120.301L119.554 136.574ZM120.96 126.774L124.388 126.687C124.388 129.88 124.08 132.839 123.465 135.563C122.85 138.259 121.927 140.603 120.696 142.595C119.466 144.587 117.928 146.14 116.082 147.253C114.236 148.337 112.054 148.879 109.534 148.879C107.601 148.879 105.813 148.557 104.173 147.912C102.562 147.238 101.17 146.198 99.998 144.792C98.8262 143.356 97.9033 141.525 97.2295 139.299C96.585 137.043 96.2627 134.333 96.2627 131.169V100.451H108.611V131.301C108.611 132.59 108.729 133.703 108.963 134.641C109.197 135.549 109.52 136.296 109.93 136.882C110.34 137.468 110.823 137.893 111.38 138.156C111.937 138.391 112.566 138.508 113.27 138.508C115.203 138.508 116.727 138.01 117.84 137.014C118.982 135.988 119.788 134.597 120.257 132.839C120.726 131.052 120.96 129.03 120.96 126.774ZM153.26 110.295V148H140.911V100.451H152.513L153.26 110.295ZM151.502 122.6L148.118 122.688C148.06 119.348 148.353 116.271 148.997 113.459C149.642 110.646 150.608 108.2 151.897 106.12C153.216 104.04 154.871 102.429 156.863 101.286C158.855 100.144 161.185 99.5723 163.851 99.5723C165.579 99.5723 167.176 99.8945 168.641 100.539C170.105 101.154 171.38 102.136 172.464 103.483C173.548 104.802 174.383 106.53 174.969 108.669C175.555 110.778 175.848 113.312 175.848 116.271V148H163.543V117.766C163.543 115.656 163.338 114.045 162.928 112.932C162.518 111.789 161.932 110.998 161.17 110.559C160.408 110.09 159.471 109.855 158.357 109.855C157.186 109.855 156.16 110.178 155.281 110.822C154.402 111.467 153.685 112.375 153.128 113.547C152.601 114.689 152.19 116.037 151.897 117.59C151.634 119.143 151.502 120.812 151.502 122.6ZM174.661 121.369L170.223 121.94C170.164 118.806 170.442 115.891 171.058 113.195C171.673 110.471 172.625 108.098 173.914 106.076C175.203 104.025 176.814 102.429 178.748 101.286C180.711 100.144 182.981 99.5723 185.56 99.5723C187.493 99.5723 189.251 99.8945 190.833 100.539C192.415 101.184 193.763 102.224 194.876 103.659C196.019 105.065 196.883 106.926 197.469 109.24C198.084 111.555 198.392 114.367 198.392 117.678V148H186.043V117.722C186.043 115.583 185.838 113.942 185.428 112.8C185.018 111.657 184.432 110.881 183.67 110.471C182.908 110.061 182 109.855 180.945 109.855C179.891 109.855 178.968 110.148 178.177 110.734C177.415 111.32 176.771 112.141 176.243 113.195C175.716 114.221 175.32 115.437 175.057 116.843C174.793 118.22 174.661 119.729 174.661 121.369ZM207.708 80.5H219.969V136.97L219.09 148H207.708V80.5ZM244.666 122.644V125.764C244.666 129.631 244.358 133 243.743 135.871C243.157 138.742 242.234 141.145 240.975 143.078C239.744 145.012 238.162 146.462 236.229 147.429C234.295 148.396 232.01 148.879 229.373 148.879C227 148.879 224.964 148.322 223.265 147.209C221.565 146.066 220.13 144.499 218.958 142.507C217.815 140.485 216.878 138.127 216.146 135.432C215.442 132.707 214.93 129.733 214.607 126.511V121.896C214.9 118.732 215.398 115.788 216.102 113.063C216.834 110.339 217.771 107.98 218.914 105.988C220.057 103.967 221.478 102.399 223.177 101.286C224.905 100.144 226.941 99.5723 229.285 99.5723C231.98 99.5723 234.295 100.07 236.229 101.066C238.162 102.033 239.744 103.483 240.975 105.417C242.234 107.351 243.157 109.768 243.743 112.668C244.358 115.539 244.666 118.864 244.666 122.644ZM232.405 125.764V122.644C232.405 120.446 232.317 118.557 232.142 116.975C231.966 115.393 231.644 114.074 231.175 113.02C230.706 111.965 230.032 111.174 229.153 110.646C228.304 110.119 227.176 109.855 225.77 109.855C224.51 109.855 223.455 110.104 222.605 110.603C221.756 111.071 221.023 111.774 220.408 112.712C219.822 113.62 219.383 114.704 219.09 115.964C218.826 117.194 218.68 118.557 218.65 120.051V128.356C218.68 130.378 218.929 132.165 219.397 133.718C219.866 135.271 220.613 136.472 221.639 137.321C222.693 138.171 224.1 138.596 225.857 138.596C227.234 138.596 228.348 138.361 229.197 137.893C230.047 137.424 230.706 136.677 231.175 135.651C231.673 134.626 231.995 133.308 232.142 131.696C232.317 130.056 232.405 128.078 232.405 125.764ZM271.385 148.879C268.133 148.879 265.247 148.381 262.728 147.385C260.237 146.389 258.128 144.953 256.399 143.078C254.671 141.174 253.353 138.874 252.444 136.179C251.536 133.483 251.082 130.407 251.082 126.95V123.039C251.082 119.172 251.521 115.788 252.4 112.888C253.279 109.958 254.524 107.497 256.136 105.505C257.747 103.513 259.725 102.033 262.068 101.066C264.441 100.07 267.122 99.5723 270.11 99.5723C273.099 99.5723 275.721 100.07 277.977 101.066C280.262 102.033 282.151 103.498 283.646 105.461C285.14 107.395 286.268 109.797 287.029 112.668C287.791 115.539 288.172 118.879 288.172 122.688V128.312H256.312V119.655H276.087V118.557C276.087 116.623 275.882 115.012 275.472 113.723C275.062 112.404 274.417 111.423 273.538 110.778C272.659 110.134 271.487 109.812 270.022 109.812C268.792 109.812 267.752 110.061 266.902 110.559C266.053 111.057 265.379 111.833 264.881 112.888C264.383 113.942 264.017 115.319 263.782 117.019C263.548 118.688 263.431 120.695 263.431 123.039V126.95C263.431 129.147 263.621 130.993 264.002 132.487C264.383 133.952 264.939 135.153 265.672 136.091C266.434 136.999 267.356 137.658 268.44 138.068C269.524 138.449 270.784 138.64 272.22 138.64C274.388 138.64 276.336 138.259 278.064 137.497C279.822 136.706 281.316 135.637 282.547 134.289L287.469 141.76C286.619 142.873 285.447 143.986 283.953 145.1C282.459 146.213 280.672 147.121 278.592 147.824C276.512 148.527 274.109 148.879 271.385 148.879ZM307.596 111.042V148H295.291V100.451H306.893L307.596 111.042ZM318.802 100.1L318.626 112.36C318.069 112.243 317.396 112.155 316.604 112.097C315.843 112.038 315.169 112.009 314.583 112.009C313.206 112.009 312.034 112.229 311.067 112.668C310.101 113.078 309.295 113.708 308.65 114.558C308.035 115.378 307.566 116.403 307.244 117.634C306.922 118.864 306.731 120.256 306.673 121.809L304.344 120.93C304.344 117.824 304.578 114.982 305.047 112.404C305.545 109.797 306.277 107.541 307.244 105.637C308.211 103.703 309.368 102.209 310.716 101.154C312.093 100.1 313.646 99.5723 315.374 99.5723C315.96 99.5723 316.575 99.6309 317.22 99.748C317.894 99.8359 318.421 99.9531 318.802 100.1Z" fill="#0040FF"/>
<path d="M398.532 139.058V117.085C398.532 115.649 398.356 114.507 398.005 113.657C397.683 112.808 397.185 112.192 396.511 111.812C395.866 111.401 395.075 111.196 394.138 111.196C393.083 111.196 392.204 111.416 391.501 111.855C390.798 112.295 390.271 112.925 389.919 113.745C389.597 114.565 389.436 115.547 389.436 116.689H377.087C377.087 114.639 377.482 112.705 378.273 110.889C379.064 109.043 380.222 107.432 381.745 106.055C383.298 104.648 385.144 103.55 387.282 102.759C389.421 101.968 391.823 101.572 394.489 101.572C397.653 101.572 400.466 102.114 402.927 103.198C405.388 104.253 407.336 105.938 408.771 108.252C410.207 110.566 410.925 113.569 410.925 117.261V138.442C410.925 141.108 411.057 143.276 411.32 144.946C411.613 146.616 412.038 148.052 412.595 149.253V150H400.202C399.646 148.682 399.221 147.041 398.928 145.078C398.664 143.086 398.532 141.079 398.532 139.058ZM400.026 120.952L400.07 128.335H395.544C394.372 128.335 393.347 128.525 392.468 128.906C391.618 129.287 390.9 129.829 390.314 130.532C389.729 131.206 389.289 131.997 388.996 132.905C388.732 133.813 388.601 134.78 388.601 135.806C388.601 136.948 388.762 137.915 389.084 138.706C389.406 139.497 389.89 140.098 390.534 140.508C391.179 140.918 391.94 141.123 392.819 141.123C394.167 141.123 395.339 140.845 396.335 140.288C397.331 139.731 398.063 139.058 398.532 138.267C399.03 137.476 399.191 136.743 399.016 136.069L401.828 140.859C401.477 141.943 400.993 143.071 400.378 144.243C399.792 145.415 399.045 146.499 398.137 147.495C397.229 148.491 396.101 149.312 394.753 149.956C393.435 150.571 391.867 150.879 390.051 150.879C387.502 150.879 385.173 150.293 383.063 149.121C380.954 147.949 379.284 146.309 378.054 144.199C376.853 142.09 376.252 139.585 376.252 136.685C376.252 134.282 376.633 132.114 377.395 130.181C378.186 128.218 379.357 126.562 380.91 125.215C382.463 123.838 384.426 122.783 386.799 122.051C389.172 121.318 391.955 120.952 395.148 120.952H400.026ZM437.204 140.64C438.347 140.64 439.328 140.405 440.148 139.937C440.998 139.468 441.643 138.706 442.082 137.651C442.521 136.597 442.756 135.234 442.785 133.564H454.343C454.343 137.139 453.581 140.229 452.058 142.837C450.563 145.415 448.542 147.407 445.993 148.813C443.474 150.19 440.617 150.879 437.424 150.879C434.23 150.879 431.447 150.366 429.074 149.341C426.701 148.315 424.738 146.821 423.186 144.858C421.662 142.896 420.505 140.508 419.714 137.695C418.952 134.854 418.571 131.602 418.571 127.939V124.468C418.571 120.864 418.952 117.642 419.714 114.8C420.505 111.958 421.662 109.556 423.186 107.593C424.738 105.63 426.687 104.136 429.03 103.11C431.403 102.085 434.187 101.572 437.38 101.572C440.808 101.572 443.781 102.29 446.301 103.726C448.82 105.132 450.783 107.212 452.189 109.966C453.625 112.72 454.343 116.118 454.343 120.161H442.785C442.756 118.345 442.536 116.836 442.126 115.635C441.745 114.404 441.145 113.467 440.324 112.822C439.533 112.148 438.479 111.812 437.16 111.812C435.783 111.812 434.67 112.104 433.82 112.69C433 113.247 432.37 114.067 431.931 115.151C431.521 116.206 431.242 117.524 431.096 119.106C430.949 120.688 430.876 122.476 430.876 124.468V127.939C430.876 130.078 430.935 131.938 431.052 133.521C431.198 135.073 431.477 136.392 431.887 137.476C432.326 138.53 432.956 139.321 433.776 139.849C434.626 140.376 435.769 140.64 437.204 140.64ZM473.723 82.4561V150H461.418V82.4561H473.723ZM498.728 102.451L481.984 126.094L471.921 137.388L467.57 128.027L475.305 116.733L484.05 102.451H498.728ZM485.896 150L475.524 128.159L484.006 120.337L500.002 150H485.896ZM522.766 150.879C519.514 150.879 516.628 150.381 514.108 149.385C511.618 148.389 509.509 146.953 507.78 145.078C506.052 143.174 504.733 140.874 503.825 138.179C502.917 135.483 502.463 132.407 502.463 128.95V125.039C502.463 121.172 502.902 117.788 503.781 114.888C504.66 111.958 505.905 109.497 507.517 107.505C509.128 105.513 511.105 104.033 513.449 103.066C515.822 102.07 518.503 101.572 521.491 101.572C524.479 101.572 527.102 102.07 529.357 103.066C531.643 104.033 533.532 105.498 535.026 107.461C536.521 109.395 537.648 111.797 538.41 114.668C539.172 117.539 539.553 120.879 539.553 124.688V130.312H507.692V121.655H527.468V120.557C527.468 118.623 527.263 117.012 526.853 115.723C526.442 114.404 525.798 113.423 524.919 112.778C524.04 112.134 522.868 111.812 521.403 111.812C520.173 111.812 519.133 112.061 518.283 112.559C517.434 113.057 516.76 113.833 516.262 114.888C515.764 115.942 515.397 117.319 515.163 119.019C514.929 120.688 514.812 122.695 514.812 125.039V128.95C514.812 131.147 515.002 132.993 515.383 134.487C515.764 135.952 516.32 137.153 517.053 138.091C517.814 138.999 518.737 139.658 519.821 140.068C520.905 140.449 522.165 140.64 523.601 140.64C525.769 140.64 527.717 140.259 529.445 139.497C531.203 138.706 532.697 137.637 533.928 136.289L538.85 143.76C538 144.873 536.828 145.986 535.334 147.1C533.84 148.213 532.053 149.121 529.973 149.824C527.893 150.527 525.49 150.879 522.766 150.879ZM569.699 139.497V82.5H582.048V150L570.886 150.044L569.699 139.497ZM545.046 127.896V124.731C545.046 120.864 545.368 117.48 546.013 114.58C546.687 111.68 547.683 109.263 549.001 107.329C550.319 105.396 551.931 103.96 553.835 103.022C555.769 102.056 557.98 101.572 560.471 101.572C562.727 101.572 564.704 102.144 566.403 103.286C568.132 104.399 569.597 105.967 570.798 107.988C571.999 110.01 572.966 112.397 573.698 115.151C574.431 117.905 574.943 120.923 575.236 124.204V128.774C574.885 131.88 574.343 134.78 573.61 137.476C572.907 140.171 571.94 142.515 570.71 144.507C569.509 146.499 568.059 148.066 566.359 149.209C564.66 150.322 562.683 150.879 560.427 150.879C557.937 150.879 555.725 150.381 553.791 149.385C551.887 148.389 550.275 146.924 548.957 144.99C547.668 143.027 546.687 140.625 546.013 137.783C545.368 134.912 545.046 131.616 545.046 127.896ZM557.351 124.731V127.896C557.351 130.122 557.453 132.041 557.658 133.652C557.893 135.234 558.259 136.538 558.757 137.563C559.284 138.56 559.973 139.307 560.822 139.805C561.672 140.273 562.727 140.508 563.986 140.508C565.627 140.508 566.96 140.098 567.985 139.277C569.011 138.428 569.772 137.271 570.271 135.806C570.798 134.312 571.091 132.598 571.149 130.664V122.358C571.091 120.747 570.9 119.297 570.578 118.008C570.256 116.719 569.802 115.62 569.216 114.712C568.63 113.804 567.897 113.101 567.019 112.603C566.169 112.104 565.173 111.855 564.03 111.855C562.8 111.855 561.745 112.104 560.866 112.603C560.017 113.101 559.343 113.877 558.845 114.932C558.347 115.957 557.966 117.29 557.702 118.931C557.468 120.542 557.351 122.476 557.351 124.731Z" fill="#0040FF"/>
<defs>
<clipPath id="clip0_0_1">
<rect width="187.314" height="178.967" fill="white" transform="translate(84.9686 258.818) rotate(-137)"/>
</clipPath>
<clipPath id="clip1_0_1">
<rect width="144.569" height="136.86" fill="white" transform="matrix(0.766044 -0.642788 -0.642788 -0.766044 329.113 235.384)"/>
</clipPath>
</defs>
</svg>
